<mxfile host="Electron" modified="2024-01-09T10:45:05.333Z" agent="Mozilla/5.0 (Windows NT 10.0; Win64; x64) AppleWebKit/537.36 (KHTML, like Gecko) draw.io/22.1.11 Chrome/114.0.5735.289 Electron/25.9.8 Safari/537.36" etag="KNiv4zEMLoPbOGLbAUWI" version="22.1.11" type="device">
  <diagram name="Page-1" id="c2ZItROZS4kyIQHK8KL9">
    <mxGraphModel dx="880" dy="542" grid="1" gridSize="10" guides="1" tooltips="1" connect="1" arrows="1" fold="1" page="1" pageScale="1" pageWidth="850" pageHeight="1100" math="0" shadow="0">
      <root>
        <mxCell id="0" />
        <mxCell id="1" parent="0" />
        <mxCell id="PNX77Y2WvyifQrnaI6au-10" value="" style="rounded=1;whiteSpace=wrap;html=1;" vertex="1" parent="1">
          <mxGeometry x="170" y="230" width="490" height="120" as="geometry" />
        </mxCell>
        <mxCell id="PNX77Y2WvyifQrnaI6au-2" value="Exponent&lt;br style=&quot;font-size: 15px;&quot;&gt;8 bits" style="rounded=1;whiteSpace=wrap;html=1;fontFamily=Montserrat;fontSize=15;arcSize=0;" vertex="1" parent="1">
          <mxGeometry x="260" y="250" width="130" height="60" as="geometry" />
        </mxCell>
        <mxCell id="PNX77Y2WvyifQrnaI6au-3" value="Sign Bit&lt;br style=&quot;font-size: 15px;&quot;&gt;1 bit" style="rounded=1;whiteSpace=wrap;html=1;fontFamily=Montserrat;fontSize=15;arcSize=0;" vertex="1" parent="1">
          <mxGeometry x="190" y="250" width="70" height="60" as="geometry" />
        </mxCell>
        <mxCell id="PNX77Y2WvyifQrnaI6au-4" value="Mantisa&lt;br style=&quot;font-size: 15px;&quot;&gt;23 bits" style="rounded=1;whiteSpace=wrap;html=1;fontFamily=Montserrat;fontSize=15;arcSize=0;" vertex="1" parent="1">
          <mxGeometry x="390" y="250" width="250" height="60" as="geometry" />
        </mxCell>
        <mxCell id="PNX77Y2WvyifQrnaI6au-6" value="31" style="text;html=1;strokeColor=none;fillColor=none;align=center;verticalAlign=middle;whiteSpace=wrap;rounded=0;fontFamily=Montserrat;fontSize=15;" vertex="1" parent="1">
          <mxGeometry x="195" y="310" width="60" height="30" as="geometry" />
        </mxCell>
        <mxCell id="PNX77Y2WvyifQrnaI6au-8" value="30 to 23" style="text;html=1;strokeColor=none;fillColor=none;align=center;verticalAlign=middle;whiteSpace=wrap;rounded=0;fontFamily=Montserrat;fontSize=15;" vertex="1" parent="1">
          <mxGeometry x="285" y="310" width="80" height="30" as="geometry" />
        </mxCell>
        <mxCell id="PNX77Y2WvyifQrnaI6au-9" value="22 to 0" style="text;html=1;strokeColor=none;fillColor=none;align=center;verticalAlign=middle;whiteSpace=wrap;rounded=0;fontFamily=Montserrat;fontSize=15;" vertex="1" parent="1">
          <mxGeometry x="485" y="310" width="60" height="30" as="geometry" />
        </mxCell>
      </root>
    </mxGraphModel>
  </diagram>
</mxfile>
